<?xml version="1.0" encoding="UTF-8"?>
<svg width="512" height="512" viewBox="0 0 512 512" fill="none" xmlns="http://www.w3.org/2000/svg">
  <rect width="512" height="512" rx="256" fill="#10B981"/>
  <path d="M331.636 139.636C331.636 133.409 326.591 128.364 320.364 128.364H203.636L180.364 261.091H258.909L203.636 384H214.909C221.136 384 226.182 378.955 226.182 372.727C226.182 371.318 225.955 369.909 225.5 368.591L258.909 261.091H180.364L203.636 128.364H192.364C186.136 128.364 181.091 133.409 181.091 139.636C181.091 141.045 181.318 142.455 181.773 143.773L148.364 251.273H226.909L181.636 372.727C181.636 378.955 186.682 384 192.909 384H309.636L332.909 251.273H254.364L309.636 128.364H320.909C327.136 128.364 332.182 123.318 332.182 117.091C332.182 115.682 331.955 114.273 331.5 112.955L298.091 220.455H376.636L331.636 139.636Z" fill="white"/>
</svg>