<?xml version="1.0" encoding="UTF-8"?>
<svg width="150" height="32" viewBox="0 0 150 32" fill="none" xmlns="http://www.w3.org/2000/svg">
  <rect width="150" height="32" rx="6" fill="#1E1E1E"/>
  <path d="M16 8L10 16H16L14 24L22 14H16L18 8H16Z" fill="#10B981" stroke="#10B981" stroke-width="1.5" stroke-linecap="round" stroke-linejoin="round"/>
  <path d="M40.0312 20H37.9062L37.8438 19.0625C37.3646 19.7292 36.6562 20.0625 35.7188 20.0625C34.9271 20.0625 34.2812 19.8333 33.7812 19.375C33.2812 18.9167 33.0312 18.3229 33.0312 17.5938C33.0312 16.6562 33.3646 15.9479 34.0312 15.4688C34.6979 14.9896 35.6562 14.75 36.9062 14.75H37.7812V14.3125C37.7812 13.9375 37.6771 13.6458 37.4688 13.4375C37.2604 13.2292 36.9375 13.125 36.5 13.125C36.1042 13.125 35.7917 13.2083 35.5625 13.375C35.3333 13.5417 35.2188 13.7708 35.2188 14.0625H33.0938C33.0938 13.5417 33.2604 13.0625 33.5938 12.625C33.9271 12.1875 34.3854 11.8438 34.9688 11.5938C35.5521 11.3438 36.2083 11.2188 36.9375 11.2188C38.0208 11.2188 38.8854 11.4896 39.5312 12.0312C40.1771 12.5729 40.5 13.3333 40.5 14.3125V17.9375C40.5 18.7292 40.5833 19.3542 40.75 19.8125V20H40.0312ZM36.1875 18.2188C36.5417 18.2188 36.8646 18.1458 37.1562 18C37.4479 17.8542 37.6562 17.6562 37.7812 17.4062V16.1875H37.0312C36.4479 16.1875 36 16.2917 35.6875 16.5C35.375 16.7083 35.2188 17 35.2188 17.375C35.2188 17.6875 35.3229 17.9375 35.5312 18.125C35.7396 18.1875 35.9375 18.2188 36.1875 18.2188Z" fill="white"/>
  <path d="M45.5 20.0625C44.3333 20.0625 43.3854 19.7083 42.6562 19C41.9271 18.2917 41.5625 17.3438 41.5625 16.1562V15.9375C41.5625 15.1042 41.7188 14.3646 42.0312 13.7188C42.3438 13.0729 42.7812 12.5729 43.3438 12.2188C43.9062 11.8646 44.5417 11.6875 45.25 11.6875C46.3542 11.6875 47.2188 12.0312 47.8438 12.7188C48.4688 13.4062 48.7812 14.3854 48.7812 15.6562V16.5938H43.9375C44 17.1354 44.2188 17.5625 44.5938 17.875C44.9688 18.1875 45.4375 18.3438 46 18.3438C46.8333 18.3438 47.5 18.0312 48 17.4062L48.6562 18.5625C48.3438 19.0208 47.9167 19.375 47.375 19.625C46.8333 19.9167 46.2083 20.0625 45.5 20.0625ZM45.2188 13.4375C44.7604 13.4375 44.3854 13.5833 44.0938 13.875C43.8021 14.1667 43.625 14.5833 43.5625 15.125H46.75V14.9688C46.7292 14.4688 46.5938 14.0938 46.3438 13.8438C46.0938 13.5729 45.7188 13.4375 45.2188 13.4375Z" fill="white"/>
  <path d="M52.5 20H50.125V8H52.5V20Z" fill="white"/>
  <path d="M57.5 20H55.125V8H57.5V20Z" fill="white"/>
  <path d="M63.5 20.0625C62.3333 20.0625 61.3854 19.7083 60.6562 19C59.9271 18.2917 59.5625 17.3438 59.5625 16.1562V15.9375C59.5625 15.1042 59.7188 14.3646 60.0312 13.7188C60.3438 13.0729 60.7812 12.5729 61.3438 12.2188C61.9062 11.8646 62.5417 11.6875 63.25 11.6875C64.3542 11.6875 65.2188 12.0312 65.8438 12.7188C66.4688 13.4062 66.7812 14.3854 66.7812 15.6562V16.5938H61.9375C62 17.1354 62.2188 17.5625 62.5938 17.875C62.9688 18.1875 63.4375 18.3438 64 18.3438C64.8333 18.3438 65.5 18.0312 66 17.4062L66.6562 18.5625C66.3438 19.0208 65.9167 19.375 65.375 19.625C64.8333 19.9167 64.2083 20.0625 63.5 20.0625ZM63.2188 13.4375C62.7604 13.4375 62.3854 13.5833 62.0938 13.875C61.8021 14.1667 61.625 14.5833 61.5625 15.125H64.75V14.9688C64.7292 14.4688 64.5938 14.0938 64.3438 13.8438C64.0938 13.5729 63.7188 13.4375 63.2188 13.4375Z" fill="white"/>
  <path d="M74.5 20C74.4167 19.8333 74.3333 19.5833 74.25 19.25C73.7083 19.7917 73 20.0625 72.125 20.0625C71.2917 20.0625 70.6042 19.8333 70.0625 19.375C69.5208 18.9167 69.25 18.3438 69.25 17.6562C69.25 16.8021 69.5729 16.1562 70.2188 15.7188C70.8646 15.2812 71.8125 15.0625 73.0625 15.0625H74.1875V14.5312C74.1875 14.1146 74.0833 13.7812 73.875 13.5312C73.6667 13.2812 73.3333 13.1562 72.875 13.1562C72.4792 13.1562 72.1667 13.25 71.9375 13.4375C71.7083 13.625 71.5938 13.875 71.5938 14.1875H69.2188C69.2188 13.6875 69.3854 13.2188 69.7188 12.7812C70.0521 12.3438 70.5208 12 71.125 11.75C71.7292 11.5 72.4062 11.375 73.1562 11.375C74.2812 11.375 75.1667 11.6458 75.8125 12.1875C76.4583 12.7292 76.7812 13.5 76.7812 14.5V18.0625C76.7812 18.8958 76.8958 19.5417 77.125 20V20H74.5ZM72.6562 18.3125C73 18.3125 73.3125 18.2396 73.5938 18.0938C73.875 17.9479 74.0833 17.75 74.2188 17.5V16.4375H73.2812C72.7396 16.4375 72.3229 16.5417 72.0312 16.75C71.7396 16.9583 71.5938 17.2396 71.5938 17.5938C71.5938 17.8854 71.6979 18.1146 71.9062 18.2812C72.1146 18.4479 72.3646 18.5312 72.6562 18.3125Z" fill="white"/>
  <path d="M83.5 20H80.8125V8H83.5V20Z" fill="white"/>
  <path d="M89.5 20H86.8125V8H89.5V20Z" fill="white"/>
  <path d="M96.5 20.0625C95.3333 20.0625 94.3854 19.7083 93.6562 19C92.9271 18.2917 92.5625 17.3438 92.5625 16.1562V15.9375C92.5625 15.1042 92.7188 14.3646 93.0312 13.7188C93.3438 13.0729 93.7812 12.5729 94.3438 12.2188C94.9062 11.8646 95.5417 11.6875 96.25 11.6875C97.3542 11.6875 98.2188 12.0312 98.8438 12.7188C99.4688 13.4062 99.7812 14.3854 99.7812 15.6562V16.5938H94.9375C95 17.1354 95.2188 17.5625 95.5938 17.875C95.9688 18.1875 96.4375 18.3438 97 18.3438C97.8333 18.3438 98.5 18.0312 99 17.4062L99.6562 18.5625C99.3438 19.0208 98.9167 19.375 98.375 19.625C97.8333 19.9167 97.2083 20.0625 96.5 20.0625ZM96.2188 13.4375C95.7604 13.4375 95.3854 13.5833 95.0938 13.875C94.8021 14.1667 94.625 14.5833 94.5625 15.125H97.75V14.9688C97.7292 14.4688 97.5938 14.0938 97.3438 13.8438C97.0938 13.5729 96.7188 13.4375 96.2188 13.4375Z" fill="white"/>
  <path d="M107.5 20C107.417 19.8333 107.333 19.5833 107.25 19.25C106.708 19.7917 106 20.0625 105.125 20.0625C104.292 20.0625 103.604 19.8333 103.062 19.375C102.521 18.9167 102.25 18.3438 102.25 17.6562C102.25 16.8021 102.573 16.1562 103.219 15.7188C103.865 15.2812 104.812 15.0625 106.062 15.0625H107.188V14.5312C107.188 14.1146 107.083 13.7812 106.875 13.5312C106.667 13.2812 106.333 13.1562 105.875 13.1562C105.479 13.1562 105.167 13.25 104.938 13.4375C104.708 13.625 104.594 13.875 104.594 14.1875H102.219C102.219 13.6875 102.385 13.2188 102.719 12.7812C103.052 12.3438 103.521 12 104.125 11.75C104.729 11.5 105.406 11.375 106.156 11.375C107.281 11.375 108.167 11.6458 108.812 12.1875C109.458 12.7292 109.781 13.5 109.781 14.5V18.0625C109.781 18.8958 109.896 19.5417 110.125 20V20H107.5ZM105.656 18.3125C106 18.3125 106.312 18.2396 106.594 18.0938C106.875 17.9479 107.083 17.75 107.219 17.5V16.4375H106.281C105.74 16.4375 105.323 16.5417 105.031 16.75C104.74 16.9583 104.594 17.2396 104.594 17.5938C104.594 17.8854 104.698 18.1146 104.906 18.2812C105.115 18.4479 105.365 18.5312 105.656 18.3125Z" fill="white"/>
  <path d="M116.5 20H114.125V11.75H116.5V20ZM113.969 9.5C113.969 9.14583 114.083 8.85417 114.312 8.625C114.542 8.39583 114.865 8.28125 115.281 8.28125C115.698 8.28125 116.021 8.39583 116.25 8.625C116.479 8.85417 116.594 9.14583 116.594 9.5C116.594 9.85417 116.479 10.1458 116.25 10.375C116.021 10.6042 115.698 10.7188 115.281 10.7188C114.865 10.7188 114.542 10.6042 114.312 10.375C114.083 10.1458 113.969 9.85417 113.969 9.5Z" fill="white"/>
  <path d="M121.5 9.5V11.75H123V13.4375H121.5V17.5C121.5 17.7917 121.552 18 121.656 18.125C121.76 18.25 121.958 18.3125 122.25 18.3125C122.458 18.3125 122.646 18.2917 122.812 18.25V20C122.396 20.1042 121.969 20.1562 121.531 20.1562C119.948 20.1562 119.125 19.3438 119.062 17.7188V13.4375H117.812V11.75H119.062V9.5H121.5Z" fill="white"/>
  <path d="M129.5 20.0625C128.333 20.0625 127.385 19.7083 126.656 19C125.927 18.2917 125.562 17.3438 125.562 16.1562V15.9375C125.562 15.1042 125.719 14.3646 126.031 13.7188C126.344 13.0729 126.781 12.5729 127.344 12.2188C127.906 11.8646 128.542 11.6875 129.25 11.6875C130.354 11.6875 131.219 12.0312 131.844 12.7188C132.469 13.4062 132.781 14.3854 132.781 15.6562V16.5938H127.938C128 17.1354 128.219 17.5625 128.594 17.875C128.969 18.1875 129.438 18.3438 130 18.3438C130.833 18.3438 131.5 18.0312 132 17.4062L132.656 18.5625C132.344 19.0208 131.917 19.375 131.375 19.625C130.833 19.9167 130.208 20.0625 129.5 20.0625ZM129.219 13.4375C128.76 13.4375 128.385 13.5833 128.094 13.875C127.802 14.1667 127.625 14.5833 127.562 15.125H130.75V14.9688C130.729 14.4688 130.594 14.0938 130.344 13.8438C130.094 13.5729 129.719 13.4375 129.219 13.4375Z" fill="white"/>
  <path d="M137.5 11.75L137.562 12.7188C138.146 12.0312 138.938 11.6875 139.938 11.6875C141.688 11.6875 142.583 12.6979 142.625 14.7188V20H140.25V14.8125C140.25 14.3125 140.146 13.9479 139.938 13.7188C139.729 13.4896 139.375 13.375 138.875 13.375C138.208 13.375 137.708 13.6562 137.375 14.2188V20H135V11.75H137.5Z" fill="white"/>
</svg>