<?xml version="1.0" encoding="UTF-8"?>
<svg width="200" height="60" viewBox="0 0 200 60" fill="none" xmlns="http://www.w3.org/2000/svg">
  <rect width="200" height="60" rx="30" fill="#1E293B"/>
  <path d="M30 15C30 14 29 13 28 13H20L18.5 22H24L20 32H21C22 32 23 31 23 30C23 29.8 22.9 29.7 22.9 29.5L24.5 22H19L20.5 13H19.5C18.5 13 17.5 14 17.5 15C17.5 15.2 17.6 15.3 17.6 15.5L16 22H21.5L17.5 30C17.5 31 18.5 32 19.5 32H27.5L29 22H23.5L27.5 13H28.5C29.5 13 30.5 12 30.5 11C30.5 10.8 30.4 10.7 30.4 10.5L28.8 17.5H34.3L30 15Z" fill="white"/>
  <path d="M45.5 30.5V19.5H48.5V30.5H45.5ZM45.5 17.5V14.5H48.5V17.5H45.5Z" fill="white"/>
  <path d="M58.5 30.5H55.5V19.5H58.5V21C59 20 60.5 19 62 19C65 19 67 21.5 67 25C67 28.5 65 31 62 31C60.5 31 59 30 58.5 29V30.5ZM61.5 28.5C63 28.5 64 27 64 25C64 23 63 21.5 61.5 21.5C60 21.5 59 23 59 25C59 27 60 28.5 61.5 28.5Z" fill="white"/>
  <path d="M76 30.5H73V19.5H76V30.5ZM76 17.5H73V14.5H76V17.5Z" fill="white"/>
  <path d="M85 30.5H82V19.5H85V20.5C85.5 19.5 86.5 19 88 19C90.5 19 92 20.5 92 23.5V30.5H89V24C89 22.5 88.5 21.5 87 21.5C85.5 21.5 85 22.5 85 24V30.5Z" fill="white"/>
  <path d="M101 30.5H98V14.5H101V30.5Z" fill="white"/>
  <path d="M111 30.5H108V19.5H111V30.5ZM111 17.5H108V14.5H111V17.5Z" fill="white"/>
  <path d="M121 30.5H118V14.5H121V30.5Z" fill="white"/>
  <path d="M131 30.5H128V19.5H131V30.5ZM131 17.5H128V14.5H131V17.5Z" fill="white"/>
  <path d="M141 30.5H138V19.5H141V30.5ZM141 17.5H138V14.5H141V17.5Z" fill="white"/>
  <path d="M151 30.5H148V19.5H151V30.5ZM151 17.5H148V14.5H151V17.5Z" fill="white"/>
  <path d="M161 30.5H158V19.5H161V30.5ZM161 17.5H158V14.5H161V17.5Z" fill="white"/>
  <path d="M171 30.5H168V19.5H171V30.5ZM171 17.5H168V14.5H171V17.5Z" fill="white"/>
  <path d="M181 30.5H178V19.5H181V30.5ZM181 17.5H178V14.5H181V17.5Z" fill="white"/>
</svg>